<svg xmlns="http://www.w3.org/2000/svg" width="22" height="22" viewBox="0 0 22 22">
  <g id="Group_944" data-name="Group 944" transform="translate(-933.851 -20.187)">
    <path id="Path_740" data-name="Path 740" d="M277.284,269.12a2.092,2.092,0,0,1-3.164,0,2.36,2.36,0,0,0-.79,1.76v.417a.65.65,0,0,0,.65.647h3.447a.647.647,0,0,0,.647-.647v-.417a2.362,2.362,0,0,0-.789-1.76Z" transform="translate(669.148 -237.78)" fill="#a8cb5c"/>
    <path id="Path_741" data-name="Path 741" d="M305.023,181.1a1.435,1.435,0,1,0-1.437-1.437A1.436,1.436,0,0,0,305.023,181.1Z" transform="translate(639.828 -150.974)" fill="#a8cb5c"/>
    <path id="Path_742" data-name="Path 742" d="M112.489,29.774l-1.723.188a10.208,10.208,0,0,0-.587-1.448l1.352-1.054a.937.937,0,0,0,.087-1.4l-2.6-2.6a.96.96,0,0,0-1.4.082L106.535,24.9a9.461,9.461,0,0,0-1.444-.6l.211-1.705a.915.915,0,0,0-.225-.733.932.932,0,0,0-.7-.316H100.7a.923.923,0,0,0-.7.316.934.934,0,0,0-.229.733l.193,1.723a9.931,9.931,0,0,0-1.453.587L97.46,23.55a.957.957,0,0,0-1.4-.087l-2.6,2.6a.937.937,0,0,0,.087,1.4L94.9,28.541a10.176,10.176,0,0,0-.61,1.444l-1.7-.211a.928.928,0,0,0-1.05.926v3.68a.932.932,0,0,0,1.05.926l1.719-.193a10.29,10.29,0,0,0,.591,1.453l-1.352,1.054a.918.918,0,0,0-.357.678.941.941,0,0,0,.27.72l2.6,2.6a.957.957,0,0,0,1.4-.087l1.082-1.352a9.977,9.977,0,0,0,1.444.61l-.215,1.7a.945.945,0,0,0,.229.738.935.935,0,0,0,.7.312h3.68a.944.944,0,0,0,.7-.312.925.925,0,0,0,.225-.738l-.188-1.719a10.521,10.521,0,0,0,1.453-.591l1.05,1.352a.957.957,0,0,0,1.4.087l2.6-2.6a.937.937,0,0,0-.087-1.4l-1.352-1.086a10.239,10.239,0,0,0,.609-1.439l1.7.211a.989.989,0,0,0,.115.009.947.947,0,0,0,.935-.935V30.7a.932.932,0,0,0-1.05-.926Zm-9.95,9.2a6.433,6.433,0,1,1,6.43-6.435A6.443,6.443,0,0,1,102.538,38.973Z" transform="translate(842.313 -1.351)" fill="#a8cb5c"/>
  </g>
</svg>
