<svg id="Group_33" data-name="Group 33" xmlns="http://www.w3.org/2000/svg" xmlns:xlink="http://www.w3.org/1999/xlink" width="21.42" height="22" viewBox="0 0 21.42 22">
  <defs>
    <clipPath id="clip-path">
      <rect id="Rectangle_17" data-name="Rectangle 17" width="21.42" height="22" fill="#666762"/>
    </clipPath>
  </defs>
  <g id="Group_32" data-name="Group 32" clip-path="url(#clip-path)">
    <path id="Path_38" data-name="Path 38" d="M14.649,17.2c-.582.295-1.129.614-1.707.858A9.377,9.377,0,1,1,18.588,7.537a9.152,9.152,0,0,1-1.307,6.9c-.14.22-.275.444-.431.652-.109.145-.085.229.038.353q2.033,2.041,4.055,4.093a1.457,1.457,0,0,1,.474,1.144,1.3,1.3,0,0,1-.827,1.2,1.332,1.332,0,0,1-1.446-.2c-.17-.14-.32-.306-.476-.462l-3.856-3.856c-.061-.061-.124-.119-.162-.155M9.4,2.322A7.05,7.05,0,1,0,16.434,9.4,7.052,7.052,0,0,0,9.4,2.322" transform="translate(0 -0.001)" fill="#666762"/>
    <path id="Path_39" data-name="Path 39" d="M262.249,125.9q0,1.707,0,3.414c0,.3-.021.316-.306.316-.443,0-.885,0-1.328,0-.188,0-.275-.059-.274-.258q0-3.485,0-6.971c0-.2.082-.294.285-.275.055,0,.111,0,.166,0l1.4.06c.017.462.045.924.05,1.387.008.774,0,1.549,0,2.324" transform="translate(-247.993 -116.338)" fill="#666762"/>
    <path id="Path_40" data-name="Path 40" d="M151.056,165.153c0,.83-.005,1.66,0,2.489,0,.226-.078.309-.305.3-.45-.012-.9-.009-1.351,0-.183,0-.254-.067-.254-.25q.005-2.537,0-5.073c0-.208.088-.278.287-.275.442.007.885.009,1.327,0,.216,0,.3.083.3.295-.005.838,0,1.675,0,2.513" transform="translate(-142.075 -154.645)" fill="#666762"/>
    <path id="Path_41" data-name="Path 41" d="M205.021,199.379c0-.553.005-1.105,0-1.658,0-.21.07-.3.289-.3.442.01.884.008,1.326,0,.212,0,.3.083.3.3q-.007,1.682,0,3.363c0,.183-.059.279-.261.275q-.7-.012-1.4,0c-.185,0-.254-.071-.253-.252,0-.576,0-1.153,0-1.729" transform="translate(-195.294 -188.061)" fill="#666762"/>
    <path id="Path_42" data-name="Path 42" d="M97.057,218.5c0,.41-.006.821,0,1.231,0,.188-.073.251-.252.249q-.71-.009-1.42,0c-.17,0-.239-.057-.238-.234q.009-1.266,0-2.533c0-.172.06-.242.234-.24.473.006.947.008,1.42,0,.2,0,.258.087.255.273-.008.418,0,.836,0,1.255" transform="translate(-90.637 -206.682)" fill="#666762"/>
  </g>
</svg>
