<svg xmlns="http://www.w3.org/2000/svg" width="10.079" height="13.336" viewBox="0 0 10.079 13.336">
  <g id="Group_1322" data-name="Group 1322" transform="translate(-647.736 230.86)">
    <g id="Group_1316" data-name="Group 1316" opacity="0.45">
      <g id="Group_1313" data-name="Group 1313">
        <path id="Path_1062" data-name="Path 1062" d="M650.05-218.382a.5.5,0,0,1-.5-.5V-230.36a.5.5,0,0,1,.5-.5.5.5,0,0,1,.5.5v11.478A.5.5,0,0,1,650.05-218.382Z" fill="#fff"/>
      </g>
      <g id="Group_1314" data-name="Group 1314">
        <path id="Path_1063" data-name="Path 1063" d="M650.045-217.524a.5.5,0,0,1-.4-.2l-1.809-2.421a.5.5,0,0,1,.1-.7.5.5,0,0,1,.7.1l1.809,2.421a.5.5,0,0,1-.1.7A.5.5,0,0,1,650.045-217.524Z" fill="#fff"/>
      </g>
      <g id="Group_1315" data-name="Group 1315">
        <path id="Path_1064" data-name="Path 1064" d="M650.055-217.524a.5.5,0,0,1-.3-.1.5.5,0,0,1-.1-.7l1.809-2.421a.5.5,0,0,1,.7-.1.5.5,0,0,1,.1.7l-1.809,2.421A.5.5,0,0,1,650.055-217.524Z" fill="#fff"/>
      </g>
    </g>
    <g id="Group_1320" data-name="Group 1320">
      <g id="Group_1317" data-name="Group 1317">
        <path id="Path_1065" data-name="Path 1065" d="M655.5-230a.5.5,0,0,1,.5.5v11.478a.5.5,0,0,1-.5.5.5.5,0,0,1-.5-.5V-229.5A.5.5,0,0,1,655.5-230Z" fill="#9fcc47"/>
      </g>
      <g id="Group_1318" data-name="Group 1318">
        <path id="Path_1066" data-name="Path 1066" d="M655.505-230.86a.5.5,0,0,1,.4.2l1.809,2.421a.5.5,0,0,1-.1.7.5.5,0,0,1-.7-.1l-1.809-2.422a.5.5,0,0,1,.1-.7A.493.493,0,0,1,655.505-230.86Z" fill="#9fcc47"/>
      </g>
      <g id="Group_1319" data-name="Group 1319">
        <path id="Path_1067" data-name="Path 1067" d="M655.495-230.86a.493.493,0,0,1,.3.1.5.5,0,0,1,.1.7l-1.809,2.422a.5.5,0,0,1-.7.1.5.5,0,0,1-.1-.7l1.809-2.421A.5.5,0,0,1,655.495-230.86Z" fill="#9fcc47"/>
      </g>
    </g>
  </g>
</svg>
