
<!-- <svg width="800px" height="800px" viewBox="0 0 24 24" fill="none" xmlns="http://www.w3.org/2000/svg">
<path d="M20.97 16H18.03C16.76 16 16 16.76 16 18.03V20.97C16 22.24 16.76 23 18.03 23H20.97C22.24 23 23 22.24 23 20.97V18.03C23 16.76 22.24 16 20.97 16ZM21.63 18.45L19.26 21.22C19.17 21.33 19.03 21.4 18.89 21.4C18.88 21.4 18.88 21.4 18.87 21.4C18.73 21.4 18.6 21.35 18.5 21.25L17.41 20.17C17.21 19.97 17.21 19.64 17.41 19.44C17.61 19.24 17.94 19.23 18.14 19.44L18.84 20.13L20.84 17.79C21.03 17.57 21.35 17.55 21.57 17.73C21.79 17.91 21.81 18.24 21.63 18.45Z" fill="#292D32"/>
<path opacity="0.4" d="M16 20.97V18.03C16 16.76 16.76 16 18.03 16H20.97C21.37 16 21.71 16.08 22 16.22C22 16.21 22 16.2 22 16.18V7.81C22 4.17 19.83 2 16.19 2H7.81C4.17 2 2 4.17 2 7.81V16.18C2 19.83 4.17 22 7.81 22H16.18C16.19 22 16.2 22 16.22 22C16.08 21.71 16 21.37 16 20.97Z" fill="#292D32"/>
<path d="M7 14.25C6.59 14.25 6.25 13.91 6.25 13.5V10.5C6.25 10.09 6.59 9.75 7 9.75C7.41 9.75 7.75 10.09 7.75 10.5V13.5C7.75 13.91 7.41 14.25 7 14.25Z" fill="#292D32"/>
<path d="M12 14.25C11.59 14.25 11.25 13.91 11.25 13.5V10.5C11.25 10.09 11.59 9.75 12 9.75C12.41 9.75 12.75 10.09 12.75 10.5V13.5C12.75 13.91 12.41 14.25 12 14.25Z" fill="#292D32"/>
<path d="M17 14.25C16.59 14.25 16.25 13.91 16.25 13.5V10.5C16.25 10.09 16.59 9.75 17 9.75C17.41 9.75 17.75 10.09 17.75 10.5V13.5C17.75 13.91 17.41 14.25 17 14.25Z" fill="#292D32"/>
</svg> -->

<svg fill="#000000" height="800px" width="800px" version="1.1" id="Layer_1" xmlns="http://www.w3.org/2000/svg" xmlns:xlink="http://www.w3.org/1999/xlink" 
	 viewBox="0 0 512.005 512.005" xml:space="preserve">
<g>
	<g>
		<g>
			<path d="M234.667,426.669c-2.816,0-5.675-0.192-8.469-0.555c-19.691-2.645-37.312-14.507-47.104-31.723L93.781,245.08
				c-8.491-14.827-10.688-32.085-6.208-48.597c4.501-16.491,15.168-30.229,30.016-38.72c9.643-5.504,20.629-8.427,31.723-8.427
				c22.891,0,44.181,12.352,55.573,32.213l43.776,76.629L445.419,61.421c6.848-6.848,15.04-11.733,23.915-14.869V21.336H0v469.333
				h469.333V218.499L279.915,407.917C267.883,420.013,251.797,426.669,234.667,426.669z"/>
			<path d="M505.749,91.587c-8.341-8.341-21.824-8.341-30.165,0L239.339,327.832l-71.488-125.077
				c-5.845-10.24-18.88-13.803-29.099-7.936c-10.24,5.845-13.803,18.88-7.936,29.099l85.333,149.333
				c3.285,5.781,9.109,9.685,15.68,10.56c0.939,0.128,1.899,0.192,2.837,0.192c5.632,0,11.072-2.219,15.083-6.251l256-256
				C514.091,113.411,514.091,99.928,505.749,91.587z"/>
		</g>
	</g>
</g>
</svg>