<svg xmlns="http://www.w3.org/2000/svg" xmlns:xlink="http://www.w3.org/1999/xlink" width="259.351" height="287.578" viewBox="0 0 259.351 287.578">
  <defs>
    <clipPath id="clip-path">
      <rect id="Rectangle_15" data-name="Rectangle 15" width="259.351" height="287.578" fill="#9fcc47"/>
    </clipPath>
  </defs>
  <g id="change-order" clip-path="url(#clip-path)">
    <path id="Path_32" data-name="Path 32" d="M301.691,131.885c-.295,31.017-8.043,56.48-23.488,79.6a33.015,33.015,0,0,0-3.926,6.919,12.3,12.3,0,0,0,2.461,12.908c3.283,3.735,6.705,7.347,9.984,11.085,7.477,8.528,4.078,20.573-6.887,23.122q-44.945,10.446-90.027,20.3c-10.562,2.314-18.784-6.844-15.6-17.2q12.959-42.19,26.269-84.272c3.937-12.417,18.251-15.448,27.3-5.984,2.933,3.067,5.706,6.287,8.586,9.406,4.219,4.567,8.091,4.191,11.43-1.075,31.309-49.383,10.745-116.374-43.026-140.17a101.5,101.5,0,0,0-30.412-8.118c-9.809-1.058-16.979-7.365-18.39-15.92-1.423-8.626,2.7-17.551,10.668-20.687A29.851,29.851,0,0,1,180.068.156C234.2,5.577,281.331,45.12,296.26,97.449a132.37,132.37,0,0,1,3.709,17.027c1,6.82,1.376,13.732,1.722,17.41" transform="translate(-42.34 0)" fill="#9fcc47"/>
    <path id="Path_33" data-name="Path 33" d="M40.253,365.549c-10.427,0-20.854.022-31.281-.007C2.809,365.524.026,362.8.019,356.71q-.038-30.555,0-61.108c.007-6.125,2.756-8.848,8.916-8.853q31.463-.03,62.927,0c5.84.007,8.824,2.849,8.84,8.634q.085,30.735,0,61.471c-.015,5.805-2.989,8.662-8.8,8.682-10.548.035-21.1.01-31.645.011" transform="translate(0 -77.979)" fill="#9fcc47"/>
    <path id="Path_34" data-name="Path 34" d="M40.551,147.865q15.278,0,30.556,0c6.745.01,9.6,2.774,9.612,9.406q.039,30.011,0,60.02c-.007,6.764-2.714,9.49-9.513,9.5q-30.92.049-61.839,0c-6.772-.011-9.35-2.7-9.353-9.572Q0,187.213.017,157.2c0-6.572,2.727-9.317,9.25-9.331,10.428-.023,20.856-.006,31.284-.006m17.182,22.707H22.676v33.215H57.733Z" transform="translate(-0.002 -40.212)" fill="#9fcc47"/>
    <path id="Path_35" data-name="Path 35" d="M40.457,82.82q-15.273,0-30.546,0C2.533,82.8.018,80.324.015,73.074Q0,43.255.016,13.437c0-6.821,2.672-9.527,9.409-9.532q30.91-.019,61.82,0c6.647,0,9.469,2.826,9.476,9.534q.032,30,0,60c-.007,6.378-2.933,9.326-9.352,9.362-10.3.058-20.607.015-30.91.016M57.693,26.573H22.661V59.84H57.693Z" transform="translate(-0.002 -1.06)" fill="#9fcc47"/>
  </g>
</svg>
