<svg xmlns="http://www.w3.org/2000/svg" width="16.899" height="16.87" viewBox="0 0 16.899 16.87">
  <path id="Path_955" data-name="Path 955" d="M197.835,114.471,195.368,112a1.049,1.049,0,0,0-1.437,0l-11.468,11.5a.618.618,0,0,0-.163.325l-.434,3.552a.52.52,0,0,0,.163.461.536.536,0,0,0,.38.163h.054l3.552-.434a.738.738,0,0,0,.325-.163l11.5-11.5a.984.984,0,0,0,.3-.7,1.047,1.047,0,0,0-.3-.732Zm-12.119,12.038-2.684.325.325-2.684,9.76-9.76,2.359,2.359Zm10.519-10.546-2.359-2.332.786-.786,2.359,2.359Z" transform="translate(-181.608 -111.379)" fill="#f96969" stroke="#f96969" stroke-width="0.5"/>
</svg>
