<svg id="Group_26" data-name="Group 26" xmlns="http://www.w3.org/2000/svg" xmlns:xlink="http://www.w3.org/1999/xlink" width="19.841" height="22" viewBox="0 0 19.841 22">
  <defs>
    <clipPath id="clip-path">
      <rect id="Rectangle_15" data-name="Rectangle 15" width="19.841" height="22" fill="#666762"/>
    </clipPath>
  </defs>
  <g id="Group_25" data-name="Group 25" clip-path="url(#clip-path)">
    <path id="Path_32" data-name="Path 32" d="M166.855,10.089a10.708,10.708,0,0,1-1.8,6.089,2.526,2.526,0,0,0-.3.529.941.941,0,0,0,.188.987c.251.286.513.562.764.848a1.044,1.044,0,0,1-.527,1.769q-3.438.8-6.887,1.553a1,1,0,0,1-1.194-1.316q.991-3.228,2.01-6.447a1.209,1.209,0,0,1,2.089-.458c.224.235.436.481.657.72.323.349.619.321.874-.082A7.445,7.445,0,0,0,159.44,3.558a7.765,7.765,0,0,0-2.327-.621,1.509,1.509,0,0,1-1.407-1.218,1.427,1.427,0,0,1,.816-1.583,2.284,2.284,0,0,1,1.028-.126,10.457,10.457,0,0,1,8.889,7.443,10.127,10.127,0,0,1,.284,1.3c.077.522.105,1.051.132,1.332" transform="translate(-147.015 0.001)" fill="#666762"/>
    <path id="Path_33" data-name="Path 33" d="M3.079,292.762c-.8,0-1.6,0-2.393,0-.471,0-.684-.21-.685-.676q0-2.338,0-4.675c0-.469.211-.677.682-.677q2.407,0,4.814,0a.592.592,0,0,1,.676.661q.007,2.351,0,4.7a.593.593,0,0,1-.673.664c-.807,0-1.614,0-2.421,0" transform="translate(0 -270.763)" fill="#666762"/>
    <path id="Path_34" data-name="Path 34" d="M3.109,147.86q1.169,0,2.338,0c.516,0,.735.212.735.72q0,2.3,0,4.592c0,.517-.208.726-.728.727q-2.365,0-4.731,0c-.518,0-.715-.207-.716-.732q0-2.3,0-4.592c0-.5.209-.713.708-.714.8,0,1.6,0,2.393,0M4.424,149.6H1.742v2.541H4.424Z" transform="translate(-0.007 -139.624)" fill="#666762"/>
    <path id="Path_35" data-name="Path 35" d="M3.1,9.934q-1.168,0-2.337,0c-.564,0-.757-.191-.757-.745q0-2.281,0-4.562c0-.522.2-.729.72-.729H5.458c.509,0,.724.216.725.729q0,2.3,0,4.59a.624.624,0,0,1-.715.716c-.788,0-1.576,0-2.365,0m1.319-4.3H1.741V8.176h2.68Z" transform="translate(-0.008 -3.68)" fill="#666762"/>
  </g>
</svg>
