<svg xmlns="http://www.w3.org/2000/svg" width="72" height="72" viewBox="0 0 72 72">
  <g id="Group_1194" data-name="Group 1194" transform="translate(-332 -170)">
    <g id="Ellipse_11" data-name="Ellipse 11" transform="translate(332 170)" fill="#424448" stroke="#9fcc47" stroke-width="1">
      <circle cx="36" cy="36" r="36" stroke="none"/>
      <circle cx="36" cy="36" r="35.5" fill="none"/>
    </g>
    <g id="Group_1188" data-name="Group 1188" transform="translate(-2599.398 2386)">
      <path id="Path_1047" data-name="Path 1047" d="M180.966,274.262c.318-.088.643-.163.974-.219a9.649,9.649,0,0,1,1.043-.094,20.61,20.61,0,0,0-12.342-9.437,10.892,10.892,0,0,1-1.511.606h-.006a11.862,11.862,0,0,1-7.332,0,10.7,10.7,0,0,1-1.518-.606A21.1,21.1,0,0,0,144.929,285v.937h30.81a7.774,7.774,0,0,1-.387-.937,8,8,0,0,1-.262-.937,8.232,8.232,0,0,1-.187-1.768,8.369,8.369,0,0,1,6.065-8.032Z" transform="translate(2799.469 -2445.766)" fill="#9fcc47"/>
      <path id="Path_1048" data-name="Path 1048" d="M241.381,91.523a10.987,10.987,0,1,0-3.61-.606,10.928,10.928,0,0,0,3.61.606Z" transform="translate(2723.546 -2272.525)" fill="#9fcc47"/>
      <path id="Path_1049" data-name="Path 1049" d="M429.71,357.481c-.075-.006-.144-.006-.219-.006a6.854,6.854,0,0,0-.8.044,8.242,8.242,0,0,0-.981.169,7.424,7.424,0,0,0-5.427,8.968c.019.081.044.162.062.244q.065.244.15.468a7.417,7.417,0,1,0,7.214-9.886Zm.931,11.592h-1.6v-1.6h1.6Zm.063-6.4-.406,4.241h-.912l-.412-4.241V360.71h1.73Z" transform="translate(2553.235 -2528.361)" fill="#9fcc47"/>
    </g>
  </g>
</svg>
