<svg xmlns="http://www.w3.org/2000/svg" width="22" height="22" viewBox="0 0 22 22">
  <path id="noun-orders-4287789" d="M141.962,52.5H128.423a2.541,2.541,0,0,0-2.538,2.538v.846h-.846a2.541,2.541,0,0,0-2.538,2.538V71.962a2.541,2.541,0,0,0,2.538,2.538h13.538a2.541,2.541,0,0,0,2.538-2.538v-.846h.846a2.541,2.541,0,0,0,2.538-2.538V55.038A2.541,2.541,0,0,0,141.962,52.5Zm-4.231,18.192a.423.423,0,0,1-.423.423h-11a.423.423,0,0,1-.423-.423v-.846a.423.423,0,0,1,.423-.423h11a.423.423,0,0,1,.423.423Zm0-3.385a.423.423,0,0,1-.423.423h-11a.423.423,0,0,1-.423-.423v-.846a.423.423,0,0,1,.423-.423h11a.423.423,0,0,1,.423.423Zm0-3.385a.423.423,0,0,1-.423.423h-11a.423.423,0,0,1-.423-.423v-.846a.423.423,0,0,1,.423-.423h11a.423.423,0,0,1,.423.423Zm0-3.385a.423.423,0,0,1-.423.423h-11a.423.423,0,0,1-.423-.423v-.846a.423.423,0,0,1,.423-.423h11a.423.423,0,0,1,.423.423Zm5.077,8.038a.847.847,0,0,1-.846.846h-.846v-11a2.541,2.541,0,0,0-2.538-2.538h-11v-.846a.847.847,0,0,1,.846-.846h13.538a.847.847,0,0,1,.846.846Z" transform="translate(-122.5 -52.5)" fill="#424448"/>
</svg>
