<svg xmlns="http://www.w3.org/2000/svg" width="45.742" height="46.948" viewBox="0 0 18.094 16.602">
  <g id="Group_1105" data-name="Group 1105" transform="translate(0.172 0.127)">
    <path id="Path_1026" data-name="Path 1026" d="M94.512,37.3a4.4,4.4,0,0,1-4.4,4.395h-.294a.556.556,0,0,1,0-1.112h.294a3.283,3.283,0,0,0,.942-6.428.556.556,0,0,1-.389-.452,4.26,4.26,0,0,0-4.006-3.515,4.06,4.06,0,0,0-4.413,2.775l-.226.674a.556.556,0,0,1-.527.379h-.376a3.284,3.284,0,0,0,0,6.567h.294a.556.556,0,0,1,0,1.112h-.294A4.4,4.4,0,0,1,81.1,32.9l.1-.295h0a5.065,5.065,0,0,1,2.272-2.84,5.629,5.629,0,0,1,3.295-.689,5.927,5.927,0,0,1,3.227,1.3A4.96,4.96,0,0,1,91.71,33.2a4.461,4.461,0,0,1,1.913,1.451,4.348,4.348,0,0,1,.889,2.644Zm-6.85,5.142-1.487,1.229V38.039a.556.556,0,1,0-1.111,0v5.627l-1.487-1.228a.556.556,0,1,0-.708.857l2.4,1.979a.556.556,0,0,0,.708,0l2.4-1.98a.556.556,0,0,0-.708-.856Z" transform="translate(-76.715 -29.052)" fill="#9fcc47" stroke="#9fcc47" stroke-width="0.25"/>
  </g>
</svg>
