<!-- <svg xmlns="http://www.w3.org/2000/svg" width="45.742" height="46.948" viewBox="0 0 18.094 16.602">
  <g id="Group_1105" data-name="Group 1105" transform="translate(0.172 0.127)">
    <path id="Path_1026" data-name="Path 1026" d="M94.512,37.3a4.4,4.4,0,0,1-4.4,4.395h-.294a.556.556,0,0,1,0-1.112h.294a3.283,3.283,0,0,0,.942-6.428.556.556,0,0,1-.389-.452,4.26,4.26,0,0,0-4.006-3.515,4.06,4.06,0,0,0-4.413,2.775l-.226.674a.556.556,0,0,1-.527.379h-.376a3.284,3.284,0,0,0,0,6.567h.294a.556.556,0,0,1,0,1.112h-.294A4.4,4.4,0,0,1,81.1,32.9l.1-.295h0a5.065,5.065,0,0,1,2.272-2.84,5.629,5.629,0,0,1,3.295-.689,5.927,5.927,0,0,1,3.227,1.3A4.96,4.96,0,0,1,91.71,33.2a4.461,4.461,0,0,1,1.913,1.451,4.348,4.348,0,0,1,.889,2.644Zm-6.85,5.142-1.487,1.229V38.039a.556.556,0,1,0-1.111,0v5.627l-1.487-1.228a.556.556,0,1,0-.708.857l2.4,1.979a.556.556,0,0,0,.708,0l2.4-1.98a.556.556,0,0,0-.708-.856Z" transform="translate(-76.715 -29.052)" fill="#9fcc47" stroke="#9fcc47" stroke-width="0.25"/>
  </g>
</svg>	 -->

<!-- new icon -->
<!-- <svg fill="#000000" height="800px" width="800px" version="1.1" id="Icon" xmlns="http://www.w3.org/2000/svg" xmlns:xlink="http://www.w3.org/1999/xlink" 
	 viewBox="0 0 24 24" enable-background="new 0 0 24 24" xml:space="preserve">
<path d="M20,24H0V0h14.41L20,5.59v4.38h-2V8h-6V2H2v20h18V24z M14,6h3.59L14,2.41V6z M18.71,20.71l-1.41-1.41L19.59,17H11v-2h8.59
	l-2.29-2.29l1.41-1.41L23.41,16L18.71,20.71z"/>
</svg> -->

<!-- new icon -->
<!-- <svg fill="#000000" height="800px" width="800px" version="1.1" id="Layer_1" xmlns="http://www.w3.org/2000/svg" xmlns:xlink="http://www.w3.org/1999/xlink" 
	 viewBox="0 0 502 502" xml:space="preserve">
<g>
	<g>
		<g>
			<path d="M491.951,414.346l-66.37-66.37c-6.971-6.97-17.36-9.036-26.468-5.264c-9.108,3.772-14.993,12.58-14.993,22.438v9.98
				c0,2.364-1.923,4.287-4.287,4.287h-6.713V103c0-2.652-1.054-5.196-2.929-7.071l-93-93C275.316,1.054,272.772,0,270.12,0h-253
				c-5.523,0-10,4.477-10,10v482c0,5.523,4.477,10,10,10h346c5.523,0,10-4.477,10-10v-28.583h6.713c2.364,0,4.287,1.923,4.287,4.287
				v9.98c0,9.858,5.885,18.666,14.993,22.438c3.023,1.252,6.186,1.861,9.319,1.861c6.308,0,12.492-2.469,17.149-7.125l66.37-66.37
				c1.875-1.875,2.929-4.419,2.929-7.071C494.88,418.765,493.826,416.221,491.951,414.346z M280.12,34.142L338.978,93H280.12V34.142
				z M353.12,482h-326V20h233v83c0,5.523,4.477,10,10,10h83v266.417h-21c-5.523,0-10,4.477-10,10v64c0,5.523,4.477,10,10,10h21V482z
				 M411.438,480.716c-1.762,1.763-3.683,1.338-4.672,0.929c-0.988-0.41-2.646-1.468-2.646-3.961v-9.98
				c0-13.392-10.895-24.287-24.287-24.287H342.12v-44h37.713c13.392,0,24.287-10.895,24.287-24.287v-9.98
				c0-2.492,1.658-3.551,2.646-3.96c0.988-0.41,2.91-0.834,4.672,0.929l59.299,59.298L411.438,480.716z"/>
			<path d="M77.62,174h165.5c5.523,0,10-4.477,10-10s-4.477-10-10-10H77.62c-5.523,0-10,4.477-10,10S72.097,174,77.62,174z"/>
			<path d="M302.62,220h-225c-5.523,0-10,4.477-10,10s4.477,10,10,10h225c5.523,0,10-4.477,10-10S308.143,220,302.62,220z"/>
			<path d="M302.62,286h-225c-5.523,0-10,4.477-10,10s4.477,10,10,10h225c5.523,0,10-4.477,10-10S308.143,286,302.62,286z"/>
			<path d="M302.62,352h-225c-5.523,0-10,4.477-10,10s4.477,10,10,10h225c5.523,0,10-4.477,10-10S308.143,352,302.62,352z"/>
			<path d="M302.62,154h-22c-5.523,0-10,4.477-10,10s4.477,10,10,10h22c5.523,0,10-4.477,10-10S308.143,154,302.62,154z"/>
		</g>
	</g>
</g>
</svg> -->

<svg fill="#9fcc47" width="800px" height="800px" viewBox="0 0 24 24" xmlns="http://www.w3.org/2000/svg"><path d="M18 22a2 2 0 0 0 2-2v-5l-5 4v-3H8v-2h7v-3l5 4V8l-6-6H6a2 2 0 0 0-2 2v16a2 2 0 0 0 2 2h12zM13 4l5 5h-5V4z"/></svg>