<svg xmlns="http://www.w3.org/2000/svg" width="16.67" height="16.67" viewBox="0 0 16.67 16.67">
  <g id="export-report-icon" transform="translate(0 0)">
    <path id="Path_560" data-name="Path 560" d="M268.248,272.391V262.165l3.11,3.11,1.159-1.159-5.082-5.082-5.082,5.082,1.159,1.159,3.11-3.11v10.225Z" transform="translate(-259.1 -255.721)" fill="#fff"/>
    <path id="Path_561" data-name="Path 561" d="M189.4,198.508h3.273v-1.626H189.4a1.2,1.2,0,0,1-1.2-1.2V184.664a1.2,1.2,0,0,1,1.2-1.2h11.018a1.2,1.2,0,0,1,1.2,1.2v11.018a1.2,1.2,0,0,1-1.2,1.2h-3.273v1.626h3.273a2.82,2.82,0,0,0,2.826-2.826V184.664a2.82,2.82,0,0,0-2.826-2.826H189.4a2.82,2.82,0,0,0-2.826,2.826v11.018a2.82,2.82,0,0,0,2.826,2.826Z" transform="translate(-186.572 -181.838)" fill="#fff"/>
  </g>
</svg>
