<!-- <svg xmlns="http://www.w3.org/2000/svg" width="16.67" height="16.67" viewBox="0 0 16.67 16.67">
  <g id="export-report-icon" transform="translate(0 0)">
    <path id="Path_560" data-name="Path 560" d="M268.248,272.391V262.165l3.11,3.11,1.159-1.159-5.082-5.082-5.082,5.082,1.159,1.159,3.11-3.11v10.225Z" transform="translate(-259.1 -255.721)" fill="#fff"/>
    <path id="Path_561" data-name="Path 561" d="M189.4,198.508h3.273v-1.626H189.4a1.2,1.2,0,0,1-1.2-1.2V184.664a1.2,1.2,0,0,1,1.2-1.2h11.018a1.2,1.2,0,0,1,1.2,1.2v11.018a1.2,1.2,0,0,1-1.2,1.2h-3.273v1.626h3.273a2.82,2.82,0,0,0,2.826-2.826V184.664a2.82,2.82,0,0,0-2.826-2.826H189.4a2.82,2.82,0,0,0-2.826,2.826v11.018a2.82,2.82,0,0,0,2.826,2.826Z" transform="translate(-186.572 -181.838)" fill="#fff"/>
  </g>
</svg> -->
<svg xmlns="http://www.w3.org/2000/svg" width="18.688" height="16.611" viewBox="0 0 18.688 16.611">
  <g id="Group_1311" data-name="Group 1311" transform="translate(-0.5)">
    <path id="Path_1059" data-name="Path 1059" d="M1.958,0H7.615l.143.058c.023,1.325,0,2.651.012,3.977a1.09,1.09,0,0,0,.252.822A1.4,1.4,0,0,0,9.3,5.231c1.221.012,2.444-.028,3.663.022,0,1.343,0,2.685,0,4.027-1.748-.007-3.5,0-5.244,0a1.051,1.051,0,0,0-.852.412.8.8,0,0,0,.614,1.227c1.83.012,3.659-.009,5.488.011-.009,1.342.008,2.685-.008,4.027a1.808,1.808,0,0,1-.41,1.169,2.168,2.168,0,0,1-1.125.489H2.117a1.747,1.747,0,0,1-1.306-.637A2.024,2.024,0,0,1,.5,15.267V1.41a1.733,1.733,0,0,1,.5-1A2.354,2.354,0,0,1,1.958,0Z" transform="translate(0)" fill="#fff"/>
    <path id="Path_1060" data-name="Path 1060" d="M100.609.76c1.363,1.335,2.7,2.7,4.056,4.04-1.359.059-2.722.008-4.081.027C100.6,3.472,100.55,2.113,100.609.76Z" transform="translate(-91.767 -0.697)" fill="#fff"/>
    <path id="Path_1061" data-name="Path 1061" d="M152.966,81.483a.808.808,0,0,1,.9.262c.843.846,1.691,1.689,2.532,2.537a.913.913,0,0,1,.232.392v.253a1.644,1.644,0,0,1-.469.645c-.713.7-1.414,1.417-2.125,2.121a1.2,1.2,0,0,1-.556.4.809.809,0,0,1-.978-.483c-.013-.228-.061-.5.119-.677.4-.445.865-.834,1.252-1.291v-.123c-1.16,0-2.321.009-3.481,0,.007-.491,0-.982.007-1.473,1.165-.023,2.332,0,3.5-.014a.411.411,0,0,0-.1-.21,9.915,9.915,0,0,0-.812-.772c-.2-.223-.47-.418-.52-.728A.74.74,0,0,1,152.966,81.483Z" transform="translate(-137.441 -74.665)" fill="#fff"/>
  </g>
</svg>
