<svg xmlns="http://www.w3.org/2000/svg" width="14.177" height="14.162" viewBox="0 0 14.177 14.162">
  <g id="grid-search" transform="translate(0 0)">
    <path id="Path_557" data-name="Path 557" d="M256.722,256.255l-2.78-2.756a6.114,6.114,0,0,0-.33-8.317,6.026,6.026,0,0,0-4.311-1.79,6.125,6.125,0,1,0,0,12.251,6.057,6.057,0,0,0,3.981-1.484l2.78,2.78a.447.447,0,0,0,.306.118.465.465,0,0,0,.33-.141.477.477,0,0,0,.024-.66Zm-11.1-3.086a5.074,5.074,0,0,1-1.508-3.651,5.268,5.268,0,0,1,1.508-3.675,5.128,5.128,0,0,1,3.675-1.508,5.183,5.183,0,1,1-3.675,8.834Z" transform="translate(-242.915 -243.143)" fill="#fff"/>
    <path id="Path_558" data-name="Path 558" d="M251.618,252.554a.692.692,0,0,1-.482-.191l-2.618-2.618a6.294,6.294,0,0,1-3.967,1.4,6.421,6.421,0,0,1-4.511-1.863,6.373,6.373,0,1,1,9.489-.545l2.63,2.609a.752.752,0,0,1,.182.509.68.68,0,0,1-.223.5A.713.713,0,0,1,251.618,252.554Zm-3.075-3.487,2.944,2.945a.2.2,0,0,0,.13.045.217.217,0,0,0,.154-.068l.012-.011a.231.231,0,0,0,.005-.3l-2.938-2.913.152-.176a5.889,5.889,0,0,0-.317-7.978,5.865,5.865,0,0,0-8.294,0,5.877,5.877,0,0,0,4.159,10.036,5.79,5.79,0,0,0,3.818-1.423ZM244.55,250.2a5.415,5.415,0,0,1-3.851-1.6h0a5.3,5.3,0,0,1-1.581-3.827,5.486,5.486,0,0,1,1.579-3.849,5.405,5.405,0,0,1,3.853-1.583,5.486,5.486,0,0,1,3.849,1.578l0,0a5.482,5.482,0,0,1,0,7.7l0,0A5.487,5.487,0,0,1,244.55,250.2Zm0-10.366a4.909,4.909,0,0,0-3.5,1.435,4.99,4.99,0,0,0-1.435,3.5,4.8,4.8,0,0,0,1.433,3.473l0,0a4.921,4.921,0,0,0,3.5,1.459,4.934,4.934,0,1,0,0-9.868Z" transform="translate(-238.164 -238.392)" fill="#fff"/>
  </g>
</svg>
