<svg xmlns="http://www.w3.org/2000/svg" width="22.084" height="22" viewBox="0 0 22.084 22">
  <g id="Group_942" data-name="Group 942" transform="translate(-1755.204 -215.931)">
    <path id="Path_737" data-name="Path 737" d="M193.042,112a11,11,0,1,0,11.042,11A11.021,11.021,0,0,0,193.042,112Zm0,19.8a8.8,8.8,0,1,1,8.834-8.8A8.817,8.817,0,0,1,193.042,131.8Zm0-16.5a7.7,7.7,0,1,0,7.73,7.7A7.715,7.715,0,0,0,193.042,115.3Zm0,13.2a1.1,1.1,0,1,1,1.1-1.1A1.1,1.1,0,0,1,193.042,128.5Zm.736-4.482v.815a.736.736,0,0,1-1.472,0v-1.467a.735.735,0,0,1,.736-.733,1.833,1.833,0,1,0-1.84-1.833.736.736,0,0,1-1.472,0,3.313,3.313,0,1,1,4.049,3.218Z" transform="translate(1573.204 103.931)" fill="#666762"/>
  </g>
</svg>
