<svg xmlns="http://www.w3.org/2000/svg" width="72" height="72" viewBox="0 0 72 72">
  <g id="Group_951" data-name="Group 951" transform="translate(-332 -170)">
    <g id="Ellipse_11" data-name="Ellipse 11" transform="translate(332 170)" fill="#f6f8f0" stroke="#a8cb5c" stroke-width="1">
      <circle cx="36" cy="36" r="36" stroke="none"/>
      <circle cx="36" cy="36" r="35.5" fill="none"/>
    </g>
    <path id="noun-inventory-1861969" d="M181.509,59.4,165.471,71.431a5.347,5.347,0,0,0-2.139,4.277V99.766a5.346,5.346,0,0,0,5.346,5.346h32.078a5.346,5.346,0,0,0,5.346-5.346V75.708a5.346,5.346,0,0,0-2.139-4.277L187.925,59.4a5.345,5.345,0,0,0-6.416,0Zm-2.139,43.037h-5.346a2.673,2.673,0,0,1-2.673-2.673V94.419a2.674,2.674,0,0,1,2.673-2.673h5.346a2.674,2.674,0,0,1,2.673,2.673v5.346a2.673,2.673,0,0,1-2.673,2.673Zm0-16.039h-5.346a2.673,2.673,0,0,1-2.673-2.673V78.38a2.674,2.674,0,0,1,2.673-2.673h5.346a2.674,2.674,0,0,1,2.673,2.673v5.346a2.673,2.673,0,0,1-2.673,2.673Zm16.039,16.039h-5.346a2.673,2.673,0,0,1-2.673-2.673V94.419a2.674,2.674,0,0,1,2.673-2.673h5.346a2.674,2.674,0,0,1,2.673,2.673v5.346a2.673,2.673,0,0,1-2.673,2.673Z" transform="translate(183.283 124.278)" fill="#a8cb5c"/>
  </g>
</svg>
