<svg xmlns="http://www.w3.org/2000/svg" width="24.352" height="22" viewBox="0 0 24.352 22">
  <g id="Group_941" data-name="Group 941" transform="translate(-1692.856 -180)">
    <path id="Path_728" data-name="Path 728" d="M227.755,119.063v5.384c-.442-.235-.888-.471-1.334-.706l-3.358-1.773c-.162-.086-.312-.174-.483-.258v-5.381c.049.029.115.059.172.088l.007,0,.5.262.164.088.167.088.334.177c1.119.591,2.239,1.177,3.358,1.769,0,0,.007,0,.012,0a.187.187,0,0,0,.081.032c0,.025.01.015.012.017.064.034.125.071.189.105.037.02.069.042.105.061a.741.741,0,0,1,.076.039Z" transform="translate(1476.657 67.361)" fill="#a8cb5c"/>
    <path id="Path_729" data-name="Path 729" d="M367.206,116.54v5.377h0c-.079.037-.137.071-.206.108l-3.2,1.69c-.02.01-.037.022-.059.032-.569.3-1.143.594-1.707.9v-5.377a1.863,1.863,0,0,1,.2-.108q1.6-.846,3.2-1.69c.591-.312,1.185-.616,1.773-.927Z" transform="translate(1343.616 67.16)" fill="#a8cb5c"/>
    <path id="Path_730" data-name="Path 730" d="M246.407,39.229l-1.248.66L241.8,41.662l-.5.265-1.847-.976L236.2,39.229l1.249-.66L240.8,36.8l.5-.265c.616.326,1.231.65,1.849.976l3.257,1.722Z" transform="translate(1463.729 143.469)" fill="#a8cb5c"/>
    <path id="Path_731" data-name="Path 731" d="M88.9,339.515v5.377c-.466-.231-.881-.464-1.317-.694q-1.678-.887-3.353-1.771c-.169-.088-.356-.179-.5-.267v-5.381a2.622,2.622,0,0,0,.289.152l.039.022c.167.088.334.181.5.27s.334.172.5.27c1.111.589,2.222,1.17,3.333,1.756H88.4s0,0,0,0l.012,0,.093.049c.128.069.253.137.383.206,0,0,0,0,.007,0Z" transform="translate(1609.132 -142.894)" fill="#a8cb5c"/>
    <path id="Path_732" data-name="Path 732" d="M227.755,336.88v5.377c-.613.326-1.234.652-1.852.979-1.109.586-2.2,1.17-3.324,1.756V339.61s.017-.007.025-.012l.182-.1c.466-.248.935-.493,1.4-.741.6-.316,1.2-.635,1.8-.952.221-.118.442-.233.665-.348.054-.027.105-.056.159-.083.253-.132.5-.262.755-.4a1.873,1.873,0,0,0,.189-.1Z" transform="translate(1476.658 -142.992)" fill="#a8cb5c"/>
    <path id="Path_733" data-name="Path 733" d="M107.265,259.718c-.392.221-.824.441-1.241.66q-1.678.887-3.353,1.776l-.248.132-.25.132-1.845-.976-3.255-1.722,1.248-.66,3.355-1.771c.167-.088.334-.189.5-.262.155.074.307.159.461.24l1.378.731q1.626.861,3.248,1.719Z" transform="translate(1596.381 -66.883)" fill="#a8cb5c"/>
    <path id="Path_734" data-name="Path 734" d="M367.2,339.41v5.377c-.466-.231-.881-.464-1.32-.694q-1.678-.887-3.353-1.771c-.169-.088-.331-.179-.5-.267v-5.386l1.334.709q1.678.887,3.358,1.776l.093.049c.13.069.243.14.39.208Z" transform="translate(1343.617 -142.789)" fill="#a8cb5c"/>
    <path id="Path_735" data-name="Path 735" d="M506.113,336.923c-.5.265-1,.525-1.506.79l-.007,0-.108.056c-.037.02-.071.037-.105.056a.291.291,0,0,1-.039.02c.007,0,.012-.007.02-.01s-.007,0-.01,0-.007,0-.01,0q-1.6.846-3.2,1.69c-.007,0-.017.007-.025.012-.056.032-.11.061-.179.093l0,0h-.007v5.386c1.128-.584,2.215-1.17,3.324-1.756.618-.326,1.239-.652,1.852-.979l0-5.372h0Zm-5.171,2.725c.059-.032.118-.064.179-.093A2.017,2.017,0,0,1,500.943,339.648Z" transform="translate(1211.095 -143.032)" fill="#a8cb5c"/>
    <path id="Path_736" data-name="Path 736" d="M385.633,259.57l-1.248.66L381.029,262l-.186.1a.009.009,0,0,0,0,0c-.066.034-.132.071-.2.108a.9.9,0,0,0-.105.059c-.616-.343-1.231-.655-1.849-.981l-1.629-.863c-.272-.145-.542-.287-.814-.429l-.2-.108-.608-.324,1.246-.657,3.358-1.773.5-.265q.924.489,1.847.976,1.626.865,3.255,1.724Z" transform="translate(1330.974 -66.732)" fill="#a8cb5c"/>
  </g>
</svg>
