<svg xmlns="http://www.w3.org/2000/svg" width="21.962" height="22" viewBox="0 0 21.962 22">
  <path id="noun-transaction-4487600" d="M207.562,118.72H192.4a3.395,3.395,0,0,0-3.4,3.4v8.536a2.874,2.874,0,0,0,2.807,2.865l2.082.038v4.3a2.874,2.874,0,0,0,2.865,2.865H208.1a2.873,2.873,0,0,0,2.865-2.865V122.119a3.395,3.395,0,0,0-3.4-3.4Zm-13.673,12.929-2.043-.038h0a.954.954,0,0,1-.936-.955v-8.536a1.49,1.49,0,1,1,2.979,0Zm11.917.439h-6.8a.958.958,0,0,1-.955-.955.97.97,0,0,1,.955-.955h6.8a.97.97,0,0,1,.955.955.957.957,0,0,1-.955.955Zm0-3.819h-6.8a.958.958,0,0,1-.955-.955.97.97,0,0,1,.955-.955h6.8a.97.97,0,0,1,.955.955.957.957,0,0,1-.955.955Zm0-3.819h-4.889a.958.958,0,0,1-.955-.955.97.97,0,0,1,.955-.955h4.889a.97.97,0,0,1,.955.955.957.957,0,0,1-.955.955Z" transform="translate(-189 -118.72)" fill="#a8cb5c"/>
</svg>
