<svg xmlns="http://www.w3.org/2000/svg" width="13.592" height="19.539" viewBox="0 0 13.592 19.539">
  <g id="invoice" transform="translate(0 0)">
    <path id="Path_950" data-name="Path 950" d="M275.55,112.247h3.4A2.551,2.551,0,0,0,281.5,109.7v-4.248a2.551,2.551,0,0,0-2.549-2.549h-3.4A2.551,2.551,0,0,0,273,105.451V109.7A2.551,2.551,0,0,0,275.55,112.247Zm-.849-6.8a.85.85,0,0,1,.849-.849h3.4a.85.85,0,0,1,.849.849V109.7a.85.85,0,0,1-.849.849h-3.4a.85.85,0,0,1-.849-.849Z" transform="translate(-270.452 -102.902)" fill="#9fcc47"/>
    <path id="Path_951" data-name="Path 951" d="M227.651,311.6a.85.85,0,0,0,.849-.849v-5.1a.85.85,0,0,1,.849-.849h8.5a.85.85,0,0,1,.849.849v5.1a.849.849,0,0,0,1.7,0v-5.1a2.551,2.551,0,0,0-2.549-2.549h-8.495a2.551,2.551,0,0,0-2.549,2.549v5.1A.85.85,0,0,0,227.651,311.6Z" transform="translate(-226.802 -292.057)" fill="#9fcc47"/>
  </g>
</svg>
