<svg xmlns="http://www.w3.org/2000/svg" width="20.833" height="22" viewBox="0 0 20.833 22">
  <g id="Group_947" data-name="Group 947" transform="translate(-1200.784 -591)">
    <path id="Path_743" data-name="Path 743" d="M115.343,22.266l-4.13,3.422a.254.254,0,0,1-.272.036.243.243,0,0,1-.148-.225V23.9h-7.671a.5.5,0,0,1-.509-.5V20.746a.5.5,0,0,1,.509-.5h7.671V18.655a.243.243,0,0,1,.148-.225.255.255,0,0,1,.272.036l4.13,3.422a.245.245,0,0,1,0,.379ZM113.75,26.81a8.6,8.6,0,0,1-3.1,2.709,8.794,8.794,0,0,1-10.113-1.493,8.271,8.271,0,0,1,0-11.9,8.794,8.794,0,0,1,10.113-1.493,8.6,8.6,0,0,1,3.1,2.709,1.355,1.355,0,0,0,1.851.339,1.27,1.27,0,0,0,.348-1.791,11.25,11.25,0,0,0-4.058-3.541A11.5,11.5,0,0,0,98.648,14.3a10.808,10.808,0,0,0,0,15.552,11.5,11.5,0,0,0,13.243,1.95,11.247,11.247,0,0,0,4.058-3.541,1.27,1.27,0,0,0-.348-1.791,1.354,1.354,0,0,0-1.851.34Z" transform="translate(1105.438 579.924)" fill="#666762" fill-rule="evenodd"/>
  </g>
</svg>
