<svg xmlns="http://www.w3.org/2000/svg" xmlns:xlink="http://www.w3.org/1999/xlink" width="21.446" height="21.446" viewBox="0 0 21.446 21.446">
  <defs>
    <clipPath id="clip-path">
      <rect id="Rectangle_9" data-name="Rectangle 9" width="21.446" height="21.446" fill="#a5a5a5"/>
    </clipPath>
  </defs>
  <g id="Group_12" data-name="Group 12" clip-path="url(#clip-path)">
    <path id="Path_14" data-name="Path 14" d="M120.325,117.358q0,3.485,0,6.97a.539.539,0,0,1-.212.507.488.488,0,0,1-.669-.132c-.786-.872-1.6-1.723-2.344-2.628a1.55,1.55,0,0,0-1.362-.608c-3.338.031-6.676.015-10.014.015a1.451,1.451,0,0,1-1.606-1.6q0-4.667,0-9.335a1.438,1.438,0,0,1,1.585-1.591h13.033a1.433,1.433,0,0,1,1.586,1.586q0,3.409,0,6.819m-8.111-1.437h4.123a2.741,2.741,0,0,0,.3-.011.679.679,0,0,0,.592-.506.624.624,0,0,0-.229-.718,1.056,1.056,0,0,0-.556-.176q-4.224-.016-8.448-.005a1.117,1.117,0,0,0-.345.051.7.7,0,0,0,.038,1.332,1.637,1.637,0,0,0,.4.033q2.062,0,4.123,0m.006,2.506h.679c1.2,0,2.4,0,3.6,0a.709.709,0,0,0,.755-.82.732.732,0,0,0-.809-.594h-8.423a1.294,1.294,0,0,0-.2.007.7.7,0,0,0-.58.459.7.7,0,0,0,.709.948c1.425.005,2.85,0,4.274,0m-2.19-5.005c.7,0,1.409,0,2.113,0a.715.715,0,1,0,0-1.424h-.1c-1.325,0-2.649,0-3.974,0a1.313,1.313,0,0,0-.466.074.686.686,0,0,0-.407.759.717.717,0,0,0,.744.586c.7.009,1.392,0,2.088,0" transform="translate(-98.881 -103.47)" fill="#a5a5a5"/>
    <path id="Path_15" data-name="Path 15" d="M12.872,4.341h-.335c-1.92,0-3.839,0-5.759,0A2.375,2.375,0,0,0,4.367,6.156a3.031,3.031,0,0,0-.077.7c-.008.956,0,1.911,0,2.867,0,.09,0,.179,0,.293-.354,0-.68.012-1,0a.532.532,0,0,0-.473.208c-.617.708-1.247,1.4-1.873,2.1A1.292,1.292,0,0,1,.76,12.5a.471.471,0,0,1-.755-.331,2.143,2.143,0,0,1,0-.226Q0,6.771,0,1.6A1.44,1.44,0,0,1,1.6,0H11.28a1.446,1.446,0,0,1,1.591,1.589q0,1.232,0,2.465v.287" transform="translate(-0.001 0)" fill="#a5a5a5"/>
  </g>
</svg>
