<svg xmlns="http://www.w3.org/2000/svg" width="72" height="72" viewBox="0 0 72 72">
  <g id="Group_952" data-name="Group 952" transform="translate(-332 -170)">
    <g id="Ellipse_11" data-name="Ellipse 11" transform="translate(332 170)" fill="#f6f8f0" stroke="#a8cb5c" stroke-width="1">
      <circle cx="36" cy="36" r="36" stroke="none"/>
      <circle cx="36" cy="36" r="35.5" fill="none"/>
    </g>
    <g id="Group_988" data-name="Group 988" transform="translate(-170.986 -33.353)">
      <path id="Path_770" data-name="Path 770" d="M587.6,231.006h.641v-.524q0-6.285,0-12.571a1.705,1.705,0,0,0-1.915-1.929q-4.371,0-8.742,0h-2.665v.633q0,5.764,0,11.527c0,.45-.008.879-.491,1.107-.463.219-.79-.033-1.124-.3-.985-.8-1.992-1.568-2.955-2.39-.346-.295-.551-.249-.871.019-.971.813-1.974,1.588-2.959,2.386-.337.273-.671.509-1.127.28s-.471-.634-.471-1.068q.007-5.79,0-11.579v-.612H553.606c-1.389,0-2,.609-2,2q0,11.214,0,22.429v.579h21.65V240.4q0-3.7,0-7.407c0-1.359.618-1.984,1.962-1.984Z" transform="translate(-30.941 0)" fill="#a8cb5c"/>
      <path id="Path_771" data-name="Path 771" d="M737.6,337.57a1.6,1.6,0,0,0-1.424-1.5c-1.171-.055-2.347-.015-3.564-.015v1.021q0,3.964,0,7.928a.916.916,0,0,1-.525.981.9.9,0,0,1-1.06-.33c-.229-.238-.465-.468-.7-.7l-1.888-1.9c-.883.891-1.715,1.726-2.541,2.568-.308.313-.629.563-1.1.366s-.526-.587-.525-1.033c.007-2.764,0-5.529,0-8.293v-.618h-3.045a1.707,1.707,0,0,0-1.951,1.943q0,13.066,0,26.132a1.723,1.723,0,0,0,1.977,1.972h14.31c1.426,0,2.032-.6,2.032-2.021q0-13.014,0-26.028C737.611,337.883,737.617,337.726,737.6,337.57Z" transform="translate(-175.31 -103.365)" fill="#a8cb5c"/>
      <path id="Path_772" data-name="Path 772" d="M540.466,408.073q-2.992,0-5.985,0c-.151,0-.3.016-.491.027v.595q0,4.173,0,8.346a.924.924,0,0,1-.482.957.907.907,0,0,1-1.044-.227c-1.039-.841-2.092-1.664-3.12-2.518a.458.458,0,0,0-.7,0c-1.017.84-2.056,1.653-3.082,2.483-.326.263-.653.47-1.086.257s-.481-.587-.48-1.011q.009-4.147,0-8.294v-.62c-2.213,0-4.345,0-6.478,0a1.674,1.674,0,0,0-1.848,1.836q0,8.19,0,16.379a1.675,1.675,0,0,0,1.82,1.814q11.5,0,23,0a1.669,1.669,0,0,0,1.82-1.814q.005-8.19,0-16.379A1.683,1.683,0,0,0,540.466,408.073Z" transform="translate(0 -165.381)" fill="#a8cb5c"/>
      <path id="Path_773" data-name="Path 773" d="M663.506,224.9c.733.583,1.462,1.172,2.193,1.757.122.1.251.187.408.3V216.272h-6.614V227c.933-.747,1.781-1.428,2.632-2.106C662.677,224.458,662.945,224.457,663.506,224.9Z" transform="translate(-123.825 -0.25)" fill="#a8cb5c"/>
      <path id="Path_774" data-name="Path 774" d="M591.72,413.6c.559.439,1.109.89,1.665,1.333.315.251.633.5,1,.789v-7.38h-6.615v7.381c.922-.738,1.782-1.431,2.646-2.118A.857.857,0,0,1,591.72,413.6Z" transform="translate(-62.078 -165.616)" fill="#a8cb5c"/>
      <path id="Path_775" data-name="Path 775" d="M768.748,342.134c1.19-1.2,1.253-1.2,2.426-.018.4.4.791.806,1.263,1.288v-7.123h-4.923V343.4C767.975,342.928,768.358,342.527,768.748,342.134Z" transform="translate(-216.827 -103.572)" fill="#a8cb5c"/>
    </g>
  </g>
</svg>
