<svg xmlns="http://www.w3.org/2000/svg" width="47.739" height="46.722" viewBox="0 0 47.739 46.722">
  <g id="open-orders" transform="translate(-502.977 -209.293)">
    <path id="Path_776" data-name="Path 776" d="M653.721,305.092v-.532l-3.259,1a.4.4,0,0,0-.1,0q-14.123,4.2-28.247,8.395c-.339.1-.417.251-.417.584q.018,7.166.008,14.332c0,3.124.005,6.248-.008,9.374,0,.389.079.529.459.341a1.12,1.12,0,0,1,.19-.053L647.709,331c.685-.2,3.585-1.064,4.158-1.237a13.739,13.739,0,0,1,1.374-.4c.417-.079.49-.286.488-.675Q653.711,316.89,653.721,305.092Zm-3.8,22.295c-.936.27-1.866.557-2.8.836q-9.911,2.961-19.825,5.912c-.537.161-1.072.328-1.613.478-.832.228-1.113.023-1.126-.826,0-.066,0-.132,0-.2q0-3.1,0-6.2c0-.888.036-.951.9-1.219,2-.619,4.014-1.207,6.022-1.8,6.217-1.841,12.422-3.724,18.644-5.546.127-.037.77-.319.77,1.7q0,2.5,0,5C650.9,327.073,650.1,327.334,649.921,327.387Z" transform="translate(-103.013 -82.661)" fill="#9fcc47"/>
    <path id="Path_777" data-name="Path 777" d="M503,307.39l4.094,2.594q4.864,3.085,9.731,6.165a.733.733,0,0,1,.394.71q-.016,11.726-.012,23.453c0,.138.086.333-.069.406s-.262-.1-.382-.176q-6.7-4.247-13.4-8.5a.646.646,0,0,1-.375-.614q.017-11.9.009-23.8C502.986,307.581,502.992,307.532,503,307.39Z" transform="translate(0 -85.116)" fill="#9fcc47"/>
    <path id="Path_778" data-name="Path 778" d="M514.575,241.6q2.5-1.634,5-3.281a.467.467,0,0,1,.606-.026q6.939,4.421,13.891,8.822a.8.8,0,0,1,.1.111c-.807.531-1.605,1.059-2.406,1.584q-4.588,3.008-9.172,6.023a.568.568,0,0,1-.739,0q-6.835-4.355-13.685-8.685c-.067-.042-.131-.09-.255-.176l2-1.315c.344-.226.691-.448,1.033-.678C511.477,243.622,514.022,241.958,514.575,241.6Z" transform="translate(-4.286 -25.073)" fill="#9fcc47"/>
    <path id="Path_779" data-name="Path 779" d="M676.674,252.089,651.436,259.6a.8.8,0,0,1,.412-.4q4.028-2.649,8.059-5.293c.837-.55.836-1.081,0-1.611l-8.308-5.27c-.166-.105-.33-.215-.542-.353a9.561,9.561,0,0,1,1.542-.5c1.241-.385,2.491-.741,3.734-1.122a.792.792,0,0,1,.732.1c1.717,1.107,3.475,2.155,5.161,3.308a8.928,8.928,0,0,0,3.5,1.358c3.654.693,7.3,1.451,10.943,2.184Z" transform="translate(-128.487 -30.982)" fill="#9fcc47"/>
    <path id="Path_780" data-name="Path 780" d="M683.41,219.33c-1.106-.218-2.213-.432-3.318-.654q-3.851-.771-7.7-1.547a2.323,2.323,0,0,1-.831-.282q-5.711-3.639-11.432-7.262c-.109-.069-.211-.152-.405-.292l7.207,1.443c1.388.279,2.775.563,4.165.836a1.812,1.812,0,0,1,.641.24q5.757,3.658,11.517,7.313c.064.041.124.09.185.136Z" transform="translate(-136.005 0)" fill="#9fcc47"/>
    <path id="Path_781" data-name="Path 781" d="M677.035,429.584c-.045-1.469-.012-2.941-.017-4.411,0-.721.1-.683-.616-.472q-7.476,2.221-14.948,4.453-3.831,1.142-7.662,2.287c-.186.056-.422.044-.42.374.014,1.8.007,3.6.007,5.454.427-.124.774-.223,1.119-.326q10.951-3.267,21.9-6.524C676.866,430.281,677.05,430.1,677.035,429.584Zm-21.02,5.459a.657.657,0,0,1-.758.619.675.675,0,0,1-.69-.692c-.022-.377,0-.757-.005-1.135,0-.346-.009-.692,0-1.037a.734.734,0,0,1,1.456-.073A19.015,19.015,0,0,1,656.015,435.043Zm2.147-.567a.686.686,0,0,1-.727.669.73.73,0,0,1-.724-.728c0-.033,0-.066,0-.1q0-.5,0-.992h0c0-.347-.01-.694,0-1.041a.647.647,0,0,1,.681-.692.664.664,0,0,1,.772.653C658.2,432.989,658.195,433.734,658.162,434.476Zm3.439-1.208a.734.734,0,0,1-1.465.051c-.03-.739-.03-1.481,0-2.22a.663.663,0,0,1,.729-.65.694.694,0,0,1,.734.7c.017.361,0,.724,0,1.085C661.6,432.577,661.616,432.923,661.6,433.268Zm3.87-1.157a.661.661,0,0,1-.645.681.652.652,0,0,1-.786-.576,11.041,11.041,0,0,1,0-2.409.631.631,0,0,1,.75-.556.651.651,0,0,1,.683.641c.019.377,0,.756,0,1.134h0C665.475,431.388,665.49,431.751,665.471,432.111Zm2.095-.487a.661.661,0,0,1-.744.642.678.678,0,0,1-.7-.7c-.018-.363,0-.727,0-1.091h0c0-.347,0-.694,0-1.041a.651.651,0,0,1,.656-.717.668.668,0,0,1,.8.625C667.608,430.1,667.606,430.866,667.566,431.624Zm3.908-1.449a.774.774,0,0,1-.752.814.746.746,0,0,1-.726-.821c-.009-.658-.01-1.317,0-1.975.008-.5.257-.758.705-.762a.721.721,0,0,1,.774.769c0,.033,0,.066,0,.1q0,.444,0,.889C671.477,429.516,671.49,429.846,671.474,430.174Zm2.189-.6a.766.766,0,0,1-.745.818.748.748,0,0,1-.733-.817q-.016-.987,0-1.975c.008-.5.258-.759.7-.765a.714.714,0,0,1,.775.765c.014.329,0,.658,0,.987S673.677,429.247,673.663,429.576Zm2.188-.6a.765.765,0,0,1-.736.823.754.754,0,0,1-.744-.81c-.011-.675-.013-1.35,0-2.025a.672.672,0,0,1,.7-.722.7.7,0,0,1,.775.709c.017.345,0,.691,0,1.037C675.853,428.316,675.861,428.646,675.851,428.975Z" transform="translate(-130.493 -186.787)" fill="#9fcc47"/>
  </g>
</svg>
