<svg xmlns="http://www.w3.org/2000/svg" width="72" height="72" viewBox="0 0 72 72">
  <g id="Group_1194" data-name="Group 1194" transform="translate(-332 -170)">
    <g id="Ellipse_11" data-name="Ellipse 11" transform="translate(332 170)" fill="#424448" stroke="#9fcc47" stroke-width="1">
      <circle cx="36" cy="36" r="36" stroke="none"/>
      <circle cx="36" cy="36" r="35.5" fill="none"/>
    </g>
    <g id="Group_1196" data-name="Group 1196" transform="translate(-3350.114 1560.751)">
      <path id="Path_1050" data-name="Path 1050" d="M179.351,86.153c.057,0,.11.008.166.009a7.785,7.785,0,0,0-2.721-1.7,31.224,31.224,0,0,1-6.754-2.911c0,.044,0,.088,0,.134-.012.6-.08,1.329-.172,2.085-.272,2.254-.779,4.755-.779,4.755a9.992,9.992,0,0,0-1.812-2.307,2.534,2.534,0,0,0-1.632-.756.929.929,0,0,0-.151.009,1.475,1.475,0,0,0-.949.494,23.338,23.338,0,0,0,4.074-6.922,6.033,6.033,0,0,1-.009-.717s-.015-.283-.048-.286c0,0,0,0-.006,0a11.48,11.48,0,0,0,1.981-3.236,6.739,6.739,0,0,0,1.173-2.658c.641-1.806.243-2.508-.06-2.768.466-1.512,1.48-5.777-.933-8.491,0,0-.924-2.045-4.642-2.787a3.943,3.943,0,0,1-2.007-2.085s-1.279.165-1.279,1.28l-.619-.247-.574.4-.664-.4a.512.512,0,0,0-.14-.014,2.028,2.028,0,0,0-.665.139s-4.836,1.859-6.076,5.7c0,0-.686,1.63.151,6.378-.2.081-1.1.576-.27,2.9a7.227,7.227,0,0,0,1.059,2.537,12.958,12.958,0,0,0,1.734,3.441s-.007-.006-.009-.009a3.646,3.646,0,0,1,.009,1.093,23.677,23.677,0,0,0,4,6.83,1.46,1.46,0,0,0-.792-.415,1.536,1.536,0,0,0-.25-.023,2.387,2.387,0,0,0-1.475.628,9.292,9.292,0,0,0-1.965,2.44s-.606-2.988-.853-5.374c-.059-.571-.1-1.112-.1-1.564,0-.09,0-.176,0-.258-2.126,1.547-6.861,2.987-6.861,2.987a7.083,7.083,0,0,0-3.057,2.065,24.058,24.058,0,0,0-3.5,10.156c0,2.195,9.286,3.972,20.739,3.972,3.407,0,6.619-.158,9.456-.438a8.915,8.915,0,0,1,7.287-14.071Z" transform="translate(3553.469 -1434.67)" fill="#9fcc47"/>
      <path id="Path_1051" data-name="Path 1051" d="M447.414,369.6a7.812,7.812,0,1,0,7.812,7.812A7.82,7.82,0,0,0,447.414,369.6Zm1.08,12.835h-2.174v-7h2.174Zm-1.1-7.856a1.1,1.1,0,1,1,.015-2.188,1.1,1.1,0,1,1-.015,2.188Z" transform="translate(3285.405 -1717.001)" fill="#9fcc47"/>
    </g>
  </g>
</svg>
