<svg id="sale-invoice-order" xmlns="http://www.w3.org/2000/svg" xmlns:xlink="http://www.w3.org/1999/xlink" width="25.522" height="26.077" viewBox="0 0 25.522 26.077">
  <defs>
    <clipPath id="clip-path">
      <rect id="Rectangle_20" data-name="Rectangle 20" width="25.522" height="26.077" fill="#9fcc47"/>
    </clipPath>
  </defs>
  <g id="Group_887" data-name="Group 887" clip-path="url(#clip-path)">
    <path id="Path_667" data-name="Path 667" d="M206.362,162.1v-16.83l.053-.018,2.234,5.654,8.213-.469v.372c0,2.655,0,5.31.007,7.965a.373.373,0,0,1-.322.437q-4.951,1.405-9.9,2.829c-.088.025-.18.039-.286.061" transform="translate(-193.258 -136.026)" fill="#9fcc47"/>
    <path id="Path_668" data-name="Path 668" d="M29.953,151.275c1.075.06,2.107.116,3.14.176,1.6.092,3.209.183,4.813.285a.315.315,0,0,0,.364-.248q.979-2.508,1.972-5.011a1.05,1.05,0,0,1,.186-.328v16.8c-.3-.083-.594-.159-.883-.242q-4.628-1.326-9.257-2.648a.384.384,0,0,1-.342-.447c.012-2.655.007-5.31.007-7.965Z" transform="translate(-28.044 -136.868)" fill="#9fcc47"/>
    <path id="Path_669" data-name="Path 669" d="M67.306,7.873c-.03-.625.213-.9.8-.905.466-.006.931,0,1.4,0a.8.8,0,0,0,.923-.784,1.167,1.167,0,0,0-.393-1.249,9.583,9.583,0,0,1-.812-.8.647.647,0,0,1,0-1q.59-.6,1.191-1.189a.639.639,0,0,1,.981-.006c.358.345.7.7,1.057,1.053a.793.793,0,0,0,1.207.08,1.183,1.183,0,0,0,.592-1.171A8.1,8.1,0,0,1,74.243.813c.008-.512.239-.776.744-.8.538-.022,1.078-.022,1.616,0a.683.683,0,0,1,.728.774c0,.476,0,.952,0,1.429a.812.812,0,0,0,.783.926,1.165,1.165,0,0,0,1.251-.387,9.361,9.361,0,0,1,.826-.834.633.633,0,0,1,.958-.005q.627.607,1.235,1.234a.63.63,0,0,1-.008.958c-.344.359-.7.7-1.052,1.058a.8.8,0,0,0-.089,1.206,1.181,1.181,0,0,0,1.167.6,7.773,7.773,0,0,1,1.173,0c.437.016.654.246.694.74-.6-.033-1.2-.062-1.8-.1-1.162-.071-2.322-.151-3.484-.215a.418.418,0,0,1-.406-.262,3.116,3.116,0,0,0-5.664.17c-.071.155-.124.254-.329.265-1.648.091-3.295.2-4.942.3-.113.007-.228,0-.34,0" transform="translate(-63.03 0)" fill="#9fcc47"/>
    <path id="Path_670" data-name="Path 670" d="M221.207,132.995c-1.319.083-2.607.167-3.894.245-1.89.114-3.78.223-5.67.338-.17.01-.287.005-.365-.2-.756-1.961-1.524-3.917-2.289-5.875a1.321,1.321,0,0,1-.036-.149c.118,0,.219-.005.318,0q4.608.281,9.217.561a.391.391,0,0,1,.4.231c.746,1.564,1.5,3.121,2.259,4.681.018.037.029.077.061.164" transform="translate(-195.685 -119.267)" fill="#9fcc47"/>
    <path id="Path_671" data-name="Path 671" d="M12.26,127.311l-.56,1.434c-.588,1.505-1.179,3.009-1.758,4.518-.079.207-.165.291-.406.276-2.734-.178-5.468-.342-8.2-.509C.9,133,.47,132.982,0,132.955a2.335,2.335,0,0,1,.084-.243c.739-1.532,1.475-3.065,2.228-4.59a.5.5,0,0,1,.35-.232q4.67-.3,9.342-.578c.072,0,.145,0,.255,0" transform="translate(0 -119.225)" fill="#9fcc47"/>
  </g>
</svg>
