<svg xmlns="http://www.w3.org/2000/svg" xmlns:xlink="http://www.w3.org/1999/xlink" width="21.154" height="22.644" viewBox="0 0 21.154 22.644">
  <defs>
    <clipPath class="clip-path">
      <rect class="Rectangle_29" data-name="Rectangle 29" width="21.154" height="22.644" fill="#a5a5a5"/>
    </clipPath>
  </defs>
  <g class="Group_895" data-name="Group 895" clip-path="url(#clip-path)">
    <path id="Path_681" data-name="Path 681" d="M10.593,0c.4,0,.8-.011,1.195,0a1.345,1.345,0,0,1,1.284,1.305q.016.8,0,1.593a.3.3,0,0,0,.233.345A8.112,8.112,0,0,1,16.22,4.938a.244.244,0,0,0,.345.037c.446-.27.9-.526,1.353-.785a1.318,1.318,0,0,1,1.91.506q.563.961,1.113,1.929A1.3,1.3,0,0,1,20.462,8.5c-.452.276-.913.54-1.377.8a.267.267,0,0,0-.154.341,8.146,8.146,0,0,1,0,3.344.282.282,0,0,0,.158.363c.45.244.892.5,1.332.767a1.318,1.318,0,0,1,.505,1.93q-.545.956-1.1,1.905a1.315,1.315,0,0,1-1.889.513c-.455-.255-.907-.515-1.354-.784a.26.26,0,0,0-.367.027,8.191,8.191,0,0,1-2.89,1.68.309.309,0,0,0-.255.355c.015.513.01,1.027,0,1.54a1.346,1.346,0,0,1-1.344,1.356q-1.155.02-2.31,0a1.344,1.344,0,0,1-1.339-1.361c-.007-.522-.008-1.045,0-1.567a.268.268,0,0,0-.207-.311,8.182,8.182,0,0,1-2.941-1.7.243.243,0,0,0-.344-.031c-.446.27-.9.526-1.355.782a1.314,1.314,0,0,1-1.908-.509q-.564-.96-1.114-1.929a1.307,1.307,0,0,1,.5-1.889c.448-.267.9-.529,1.355-.781A.271.271,0,0,0,2.229,13a7.983,7.983,0,0,1,0-3.369.271.271,0,0,0-.164-.338c-.434-.239-.859-.492-1.287-.74A1.33,1.33,0,0,1,.241,6.573Q.782,5.63,1.33,4.692a1.314,1.314,0,0,1,1.888-.513c.454.255.91.51,1.353.784a.272.272,0,0,0,.387-.043,8.109,8.109,0,0,1,2.9-1.669.28.28,0,0,0,.228-.322c-.011-.531-.009-1.062,0-1.593A1.347,1.347,0,0,1,9.4.005c.4-.011.8,0,1.195,0h0M10.564,16.45c.628,0,1.256.005,1.883,0a1.4,1.4,0,0,0,1.434-1.2,3.212,3.212,0,0,0-.01-.92,3.342,3.342,0,0,0-6.628.234,1.541,1.541,0,0,0,1.65,1.89c.555-.035,1.114-.006,1.671-.006m2.316-8.2a2.3,2.3,0,1,0-2.308,2.311,2.286,2.286,0,0,0,2.308-2.311" transform="translate(0 0)" fill="#a5a5a5"/>
  </g>
</svg>
