<svg xmlns="http://www.w3.org/2000/svg" xmlns:xlink="http://www.w3.org/1999/xlink" width="282.442" height="48.971" viewBox="0 0 282.442 48.971">
  <defs>
    <clipPath id="clip-path">
      <rect id="Rectangle_1" data-name="Rectangle 1" width="282.442" height="48.971" fill="none"/>
    </clipPath>
  </defs>
  <g id="Group_1" data-name="Group 1" clip-path="url(#clip-path)">
    <g id="logo">
      <path id="Path_1" data-name="Path 1" d="M28.553,12.46a6.485,6.485,0,0,0,2.606-5.495,6.913,6.913,0,0,0-1.769-4.8A6.823,6.823,0,0,0,24.083,0H0V25.26H24.525A6.8,6.8,0,0,0,31.651,18.3a6.39,6.39,0,0,0-3.1-5.836M5.9,5.9H24.083q1.275,0,1.277,1.89T24.083,9.683H5.9ZM24.477,19.363H5.9V15.582H24.477q1.275,0,1.275,1.89t-1.275,1.891" transform="translate(0 0)" fill="#424448"/>
      <path id="Path_2" data-name="Path 2" d="M94.821,16.905,79.632,0h-5.9V25.26h5.9v-17l15.189,17h5.895V0H94.821Z" transform="translate(-10.35 0)" fill="#424448"/>
      <path id="Path_3" data-name="Path 3" d="M39.585,25.26H66.517v-5.9H45.482V15.582H65.188v-5.9H45.482V5.9H66.566V0H39.585Z" transform="translate(-5.556 0)" fill="#424448"/>
      <path id="Path_4" data-name="Path 4" d="M315.449,17.078l-3.871,4.106,6.541,6.472h8.056Z" transform="translate(-43.733 -2.397)" fill="#424448"/>
      <path id="Path_5" data-name="Path 5" d="M281.482,0H256.961V25.26h5.9V5.9h18.279q1.623,0,1.624,2.6t-1.624,2.607H265.955l5.271,5.9h10.255a6.319,6.319,0,0,0,5.363-2.657A9.432,9.432,0,0,0,288.66,8.5a9.441,9.441,0,0,0-1.815-5.847A6.321,6.321,0,0,0,281.482,0" transform="translate(-36.067 0)" fill="#424448"/>
      <path id="Path_6" data-name="Path 6" d="M296.6,15.718l5.9-6.247V0h-5.9Z" transform="translate(-41.631 0)" fill="#424448"/>
      <path id="Path_7" data-name="Path 7" d="M241.958,0H225.247a6.471,6.471,0,0,0-5.138,2.306A8.135,8.135,0,0,0,218.124,7.8V25.26h5.895V7.811c0-1.277.4-1.912,1.228-1.912h16.711c.846,0,1.275.638,1.275,1.914v3.54H227.7v5.9h15.53V25.26h5.9V7.8a8.113,8.113,0,0,0-1.989-5.493A6.523,6.523,0,0,0,241.958,0" transform="translate(-30.616 0)" fill="#424448"/>
      <path id="Path_8" data-name="Path 8" d="M193.579,14.595,183.357,0h-6.195V25.26h5.9V9.88l10.516,14.988L204.1,9.88V25.26H210V0h-6.14Z" transform="translate(-24.867 0)" fill="#424448"/>
      <path id="Path_9" data-name="Path 9" d="M164.1,9.683H148.909V0h-5.9V25.26h5.9V15.581H164.1V25.26h5.9V0h-5.9Z" transform="translate(-20.073 0)" fill="#424448"/>
      <path id="Path_10" data-name="Path 10" d="M110.3,2.281A7.543,7.543,0,0,0,107.89,8v9.27a7.54,7.54,0,0,0,2.407,5.714,8.193,8.193,0,0,0,5.848,2.279h19.56v-5.9h-19.56q-2.358,0-2.359-2.106V8q0-2.1,2.359-2.1h19.56V0h-19.56A8.184,8.184,0,0,0,110.3,2.281" transform="translate(-15.144 0)" fill="#424448"/>
      <path id="Path_11" data-name="Path 11" d="M237.669,19.822h8.009l4.519,5.056L273.693,0h8.062L250.046,33.567ZM16.507,36.468a3.494,3.494,0,0,0-2.94-1.5H0v14H3.269V44.42h10.3a3.489,3.489,0,0,0,2.94-1.5,5.083,5.083,0,0,0,1.036-3.215,5.193,5.193,0,0,0-1.036-3.24m-2.94,4.683H3.269V38.237h10.3c.47,0,.707.49.707,1.471,0,.963-.237,1.443-.707,1.443m31.3,3.243h1.253a3.5,3.5,0,0,0,2.968-1.471,5.722,5.722,0,0,0,0-6.485,3.5,3.5,0,0,0-2.968-1.469H32.523v14h3.27V38.237H45.926q.9,0,.9,1.442t-.9,1.445H37.509l7,7.847h4.468ZM82.451,39.4a4.186,4.186,0,0,0-1.334-3.168,4.55,4.55,0,0,0-3.243-1.264H69.651a4.548,4.548,0,0,0-3.243,1.264A4.187,4.187,0,0,0,65.073,39.4v5.137a4.189,4.189,0,0,0,1.335,3.169,4.543,4.543,0,0,0,3.243,1.265h8.224a4.544,4.544,0,0,0,3.243-1.265,4.188,4.188,0,0,0,1.334-3.169Zm-4.577,6.3H69.651q-1.308,0-1.308-1.168V39.4q0-1.167,1.308-1.167h8.224c.873,0,1.308.389,1.308,1.167v5.129c0,.78-.434,1.168-1.308,1.168M112.8,39.4a4.209,4.209,0,0,0-1.321-3.168,4.5,4.5,0,0,0-3.228-1.264H97.432v3.268h10.84q1.255,0,1.255,1.167v5.129q0,1.17-1.257,1.168H100.7V40.143H97.432v8.828h10.815a4.5,4.5,0,0,0,3.228-1.265,4.211,4.211,0,0,0,1.321-3.169Zm32.2-4.431h-3.269v9.67q0,1.064-.683,1.063h-9.285c-.472,0-.71-.353-.71-1.063v-9.67h-3.269v9.67a4.513,4.513,0,0,0,1.105,3.051,3.612,3.612,0,0,0,2.872,1.282h9.262a3.632,3.632,0,0,0,2.861-1.282,4.5,4.5,0,0,0,1.117-3.051ZM175.39,45.7H164.551q-1.309,0-1.308-1.168V39.4q0-1.167,1.308-1.167H175.39V34.968H164.551a4.544,4.544,0,0,0-3.242,1.264,4.182,4.182,0,0,0-1.336,3.168v5.137a4.184,4.184,0,0,0,1.336,3.169,4.538,4.538,0,0,0,3.242,1.265H175.39Zm30.889-10.733H190.371v3.268h6.321V48.971h3.27V38.237h6.317Zm30.452,6.669a3.7,3.7,0,0,0-2.894-1.3h-8.817c-.453,0-.679-.344-.679-1.035q0-1.063.679-1.062h12.123V34.968h-12.1a3.622,3.622,0,0,0-2.859,1.281,4.488,4.488,0,0,0-1.114,3.049,4.345,4.345,0,0,0,1.089,3,3.66,3.66,0,0,0,2.884,1.308h8.8c.453,0,.677.351.677,1.05s-.223,1.049-.677,1.049h-12.1v3.27h12.1a3.679,3.679,0,0,0,2.883-1.3,4.808,4.808,0,0,0,0-6.03" transform="translate(0 0)" fill="#9fcc47"/>
    </g>
  </g>
</svg>
